#!OML:ASF Y:\EmotionMaleHayes\Project 1\Capture day 1\Session 1\Male1.ASF
:FULLY-SPECIFIED
:DEGREES
778
root 47.9961 17.1719 -1.71136 1167.08 86.0841 1169.54
lowerback 3.69011 2.12526 -7.70984
upperback 1.39331 2.59409 -1.16026
thorax -0.911978 1.30972 2.99595
lowerneck -21.8329 0.609358 2.21786
upperneck 21.842 0.322052 -0.431712
head 10.6407 0.326418 -0.465109
rclavicle 2.14936e-015 1.98785e-015
rhumerus -26.9213 4.80105 -85.2565
rradius 36.2611
rwrist 0.322506
rhand -10.429 -32.6628
rfingers 7.12502
rthumb 15.5705 -62.056
lclavicle 2.14936e-015 1.98785e-015
lhumerus -36.8579 -10.8654 93.998
lradius 26.3237
lwrist -2.60452
lhand -16.5243 -24.0296
lfingers 7.12502
lthumb 9.69433 5.72727
rfemur 6.28851 -1.59183 10.0305
rtibia 7.00767
rfoot -13.8099 1.6698
rtoes 5.80437
lfemur 12.1045 -0.446641 -22.9711
ltibia -0.337456
lfoot -12 10.5455
ltoes -2.91269
779
root 48.0072 17.1683 -1.70257 1167.18 86.5928 1169.74
lowerback 3.77769 2.15806 -7.22771
upperback 1.39243 2.64375 -0.990266
thorax -0.955368 1.33425 2.89751
lowerneck -21.7232 0.556568 2.26733
upperneck 21.7679 0.251804 -0.498672
head 10.5921 0.289561 -0.508125
rclavicle 1.18401e-014 9.93923e-015
rhumerus -26.8575 5.06109 -85.2814
rradius 36.2884
rwrist 0.33203
rhand -10.4862 -32.4668
rfingers 7.12502
rthumb 15.5154 -61.8643
lclavicle 1.18401e-014 9.93923e-015
lhumerus -36.7196 -10.0773 93.5122
lradius 25.9123
lwrist -4.27353
lhand -16.3638 -24.2501
lfingers 7.12502
lthumb 9.84923 5.49952
rfemur 6.65965 -1.55516 10.697
rtibia 6.58783
rfoot -13.7249 1.58023
rtoes 5.84451
lfemur 12.2923 -0.385096 -22.2613
ltibia -0.385914
lfoot -12.1989 10.4281
ltoes -2.03117
780
root 48.0177 17.1658 -1.69268 1167.27 86.75 1169.91
lowerback 3.67637 2.20782 -7.13643
upperback 1.51249 2.72874 -0.89536
thorax -0.78379 1.36829 2.9469
lowerneck -21.6295 0.470599 2.11703
upperneck 21.5423 0.145412 -0.362827
head 10.4904 0.242148 -0.45057
rclavicle -2.73702e-014 2.10712e-014
rhumerus -26.5896 5.2625 -85.2743
rradius 36.2555
rwrist 0.251961
rhand -10.7853 -32.2499
rfingers 7.12502
rthumb 15.2273 -61.6695
lclavicle -2.73702e-014 2.10712e-014
lhumerus -36.346 -8.91388 92.8547
lradius 25.5045
lwrist -6.44702
lhand -16.3053 -24.5978
lfingers 7.12502
lthumb 9.90558 5.14917
rfemur 6.96148 -1.52688 10.9184
rtibia 6.23668
rfoot -13.6376 1.52569
rtoes 5.93261
lfemur 12.4273 -0.325773 -21.9772
ltibia -0.384686
lfoot -12.3125 10.2961
ltoes -2.33649
781
root 48.0225 17.1697 -1.70022 1171.64 86.1379 1174.08
lowerback 3.55556 2.19315 -7.54619
upperback 1.43906 2.70477 -1.11108
thorax -0.796704 1.35968 2.95615
lowerneck -21.4967 0.351557 1.93868
upperneck 21.4314 -0.00183915 -0.193182
head 10.4234 0.18021 -0.382443
rclavicle -2.03879e-014 3.65764e-014
rhumerus -26.4909 5.33897 -85.3284
rradius 36.2172
rwrist 0.163836
rhand -10.8299 -32.3848
rfingers 7.12502
rthumb 15.1843 -61.8077
lclavicle -2.03879e-014 3.65764e-014
lhumerus -36.2214 -8.24182 92.3335
lradius 25.0929
lwrist -8.40573
lhand -16.2855 -25.0844
lfingers 7.12502
lthumb 9.9247 4.66165
rfemur 6.9023 -2.65105 9.79472
rtibia 6.22006
rfoot -13.4676 2.4148
rtoes 5.3212
lfemur 12.1831 -0.329923 -22.8451
ltibia -0.302673
lfoot -12.2463 10.0774
ltoes -3.05922
782
root 48.0214 17.1732 -1.70778 1175.76 86.2427 1177.99
lowerback 3.41422 2.15131 -7.17547
upperback 1.41825 2.67151 -1.13758
thorax -0.718762 1.34113 2.72981
lowerneck -21.5205 0.297537 1.89011
upperneck 21.3544 -0.0644106 -0.190097
head 10.399 0.146408 -0.382757
rclavicle 4.51117e-014 -3.73715e-014
rhumerus -26.2595 5.5182 -85.3914
rradius 36.1551
rwrist 0.03005
rhand -10.8365 -32.4958
rfingers 7.12502
rthumb 15.178 -61.9191
lclavicle 4.51117e-014 -3.73715e-014
lhumerus -35.96 -7.93229 91.9266
lradius 24.6547
lwrist -10.0978
lhand -16.2025 -25.5095
lfingers 7.12502
lthumb 10.0048 4.23266
rfemur 6.79266 -3.50827 9.70331
rtibia 6.18169
rfoot -13.343 2.9913
rtoes 4.59207
lfemur 11.9215 -0.471668 -22.8429
ltibia -0.256978
lfoot -12.3122 10.0006
ltoes -2.63819
783
root 48.0233 17.1768 -1.70615 1178.51 86.5881 1180.58
lowerback 3.35689 2.16038 -6.66347
upperback 1.33433 2.69708 -1.09829
thorax -0.756162 1.35605 2.48491
lowerneck -21.5336 0.263854 1.90127
upperneck 21.4013 -0.118446 -0.174492
head 10.4179 0.125442 -0.387143
rclavicle -2.13072e-014 7.95139e-015
rhumerus -26.2384 5.56423 -85.5095
rradius 36.1342
rwrist -0.0335122
rhand -10.9837 -32.4804
rfingers 7.12502
rthumb 15.0362 -61.9144
lclavicle -2.13072e-014 7.95139e-015
lhumerus -35.8224 -7.64073 91.5177
lradius 24.2333
lwrist -11.7935
lhand -16.0638 -25.8133
lfingers 7.12502
lthumb 10.1386 3.92241
rfemur 6.7107 -3.50465 10.1728
rtibia 6.00748
rfoot -13.2685 2.97608
rtoes 5.64865
lfemur 11.7298 -0.544412 -22.4212
ltibia -0.224057
lfoot -12.3566 10.0031
ltoes -2.90121
784
root 48.029 17.1767 -1.70168 1180.41 86.6255 1182.44
lowerback 3.39908 2.1389 -6.61275
upperback 1.2567 2.66162 -1.08617
thorax -0.855226 1.34232 2.46745
lowerneck -21.5515 0.259834 1.97959
upperneck 21.5095 -0.139886 -0.208216
head 10.4603 0.11987 -0.415425
rclavicle -1.81391e-015 2.14687e-014
rhumerus -26.3016 5.71152 -85.6765
rradius 36.1035
rwrist -0.058848
rhand -11.0292 -32.4632
rfingers 7.12502
rthumb 14.9924 -61.9005
lclavicle -1.81391e-015 2.14687e-014
lhumerus -35.8221 -7.76439 91.3651
lradius 23.813
lwrist -12.7609
lhand -15.8374 -25.9248
lfingers 7.12502
lthumb 10.357 3.80018
rfemur 6.74795 -3.62345 10.2269
rtibia 6.04225
rfoot -13.328 3.04292
rtoes 6.01636
lfemur 11.7041 -0.494555 -22.3109
ltibia -0.23105
lfoot -12.146 9.92368
ltoes -4.28083
785
root 48.0374 17.1739 -1.69114 1182.39 86.9239 1184.44
lowerback 3.44312 2.13348 -6.35331
upperback 1.24039 2.65679 -0.983135
thorax -0.890164 1.34017 2.4275
lowerneck -21.6006 0.272651 2.06616
upperneck 21.5736 -0.131295 -0.286814
head 10.4927 0.122051 -0.456713
rclavicle 1.4561e-014 -7.95139e-016
rhumerus -26.2981 5.93525 -85.8328
rradius 36.0049
rwrist -0.00395658
rhand -11.0957 -32.2925
rfingers 7.12502
rthumb 14.9283 -61.7346
lclavicle 1.4561e-014 -7.95139e-016
lhumerus -35.7646 -7.92296 91.2474
lradius 23.4043
lwrist -13.6751
lhand -15.6353 -26.0779
lfingers 7.12502
lthumb 10.552 3.63718
rfemur 6.90709 -3.34959 10.7229
rtibia 5.82781
rfoot -13.2912 2.80859
rtoes 6.88373
lfemur 11.8027 -0.49122 -21.8223
ltibia -0.306035
lfoot -12.0827 9.82877
ltoes -4.10359
786
root 48.0486 17.1728 -1.67108 1186.65 87.5877 1188.75
lowerback 3.52753 2.17783 -5.78882
upperback 1.18625 2.7227 -0.748248
thorax -0.985812 1.3742 2.34718
lowerneck -21.6002 0.305837 2.1386
upperneck 21.6841 -0.0750837 -0.407407
head 10.5335 0.140713 -0.503508
rclavicle 9.20621e-015 2.38542e-014
rhumerus -26.3944 6.0872 -85.9172
rradius 35.9358
rwrist 0.0363084
rhand -11.1157 -32.2231
rfingers 7.12502
rthumb 14.909 -61.6666
lclavicle 9.20621e-015 2.38542e-014
lhumerus -35.6081 -6.29356 90.3505
lradius 23.0023
lwrist -16.7861
lhand -15.2502 -26.5306
lfingers 7.12502
lthumb 10.9235 3.16529
rfemur 7.08213 -2.71659 11.8519
rtibia 5.5631
rfoot -13.4118 2.24228
rtoes 7.65988
lfemur 11.9166 -0.4905 -20.7796
ltibia -0.355781
lfoot -12.2673 9.67026
ltoes -3.01951
787
root 48.0526 17.1753 -1.66521 1189.6 87.4933 1191.62
lowerback 3.18111 2.1608 -5.81309
upperback 1.41145 2.73572 -0.756864
thorax -0.561311 1.36663 2.37056
lowerneck -21.8257 0.360479 2.12097
upperneck 21.5933 -0.014976 -0.366064
head 10.5431 0.168847 -0.476879
rclavicle 2.92462e-014 -3.97569e-015
rhumerus -25.9388 6.22571 -85.9809
rradius 35.7784
rwrist -0.089412
rhand -11.0824 -32.3299
rfingers 7.12502
rthumb 14.9411 -61.771
lclavicle 2.92462e-014 -3.97569e-015
lhumerus -34.9527 -7.41923 90.6162
lradius 22.2263
lwrist -16.7759
lhand -15.2136 -26.4607
lfingers 7.12502
lthumb 10.9588 3.23326
rfemur 7.08833 -2.93007 11.7699
rtibia 5.61781
rfoot -13.5646 2.313
rtoes 7.14101
lfemur 11.8265 -0.452058 -20.7854
ltibia -0.308602
lfoot -12.258 9.4903
ltoes -3.0739
788
root 48.0561 17.1755 -1.65582 1189.69 87.4041 1191.67
lowerback 3.18323 2.17635 -5.94403
upperback 1.38267 2.75127 -0.767098
thorax -0.598795 1.37565 2.43136
lowerneck -21.7273 0.351096 1.96059
upperneck 21.5472 -0.025007 -0.156093
head 10.5082 0.177289 -0.37636
rclavicle -8.29926e-015 -2.42517e-014
rhumerus -25.9637 6.29707 -86.1205
rradius 35.723
rwrist -0.0312672
rhand -10.8338 -32.4702
rfingers 7.12502
rthumb 15.1806 -61.8933
lclavicle -8.29926e-015 -2.42517e-014
lhumerus -34.7762 -7.57453 90.4782
lradius 21.731
lwrist -17.4958
lhand -15.0933 -26.4538
lfingers 7.12502
lthumb 11.0747 3.23398
rfemur 7.14858 -2.85353 11.722
rtibia 5.31929
rfoot -13.423 2.05333
rtoes 6.25154
lfemur 11.7903 -0.479009 -20.8235
ltibia -0.352301
lfoot -12.1202 9.58398
ltoes -3.12111
789
root 48.0623 17.1758 -1.64802 1189.64 87.2774 1191.55
lowerback 3.12524 2.20416 -6.10125
upperback 1.34786 2.78633 -0.764503
thorax -0.612497 1.39374 2.52132
lowerneck -21.6092 0.264378 1.70388
upperneck 21.5 -0.100977 0.0178719
head 10.4683 0.142815 -0.282963
rclavicle -1.49213e-014 -1.11319e-014
rhumerus -26.09 6.22001 -86.1726
rradius 35.8496
rwrist 0.24538
rhand -10.4312 -32.6309
rfingers 7.12502
rthumb 15.5683 -62.0243
lclavicle -1.49213e-014 -1.11319e-014
lhumerus -34.5112 -7.09196 90.1245
lradius 21.1915
lwrist -18.9006
lhand -15.054 -26.7884
lfingers 7.12502
lthumb 11.1127 2.89733
rfemur 7.22736 -2.89461 11.5759
rtibia 5.20909
rfoot -13.4248 2.17374
rtoes 8.02475
lfemur 11.7231 -0.537423 -20.9499
ltibia -0.409301
lfoot -12.1922 9.70138
ltoes -1.86352
